# xmcd CD database file
#
# Track frame offsets:
#	150
#	19633
#	34958
#	45781
#	71565
#	89451
#	112429
#	129543
#	141219
#	164341
#	177528
#	188225
#	207510
#
# Disc length: 3224 seconds
#
# Revision: 2
# Processed by: cddbd v1.5.2PL0 Copyright (c) Steve Scherf et al.
# Submitted via: CDex 1.72
#
DISCID=c00c960d
DTITLE=Lewis, Laurie,  and Tom Rozum (USA-03-Guest House-cty) - Guest House
DYEAR=2003
DGENRE=Country
TTITLE0=Willie Poor Boy
TTITLE1=Since You Went Away
TTITLE2=Bad Seed
TTITLE3=Tramps and Hawkers
TTITLE4=Alaska
TTITLE5=O My Malissa-How Old Are You-
TTITLE6=My Heart's Own Love
TTITLE7=Old Dan Tucker
TTITLE8=Scars From an Old Love
TTITLE9=Don't Let the Stars Get in Your Eyes
TTITLE10=Quiet Hills
TTITLE11=Just a Lie
TTITLE12=Wild Rose of the Mountain-The Devil Chased Me Around the Stump-Glory at the Meeting House
EXTD=YEAR: 2003
EXTT0=
EXTT1=
EXTT2=
EXTT3=
EXTT4=
EXTT5=
EXTT6=
EXTT7=
EXTT8=
EXTT9=
EXTT10=
EXTT11=
EXTT12=
PLAYORDER=
